HIERARCHY
ROOT Hips
{
	OFFSET	0.00	0.00	0.00
	CHANNELS 6 Xposition Yposition Zposition Zrotation Xrotation Yrotation
	JOINT LeftUpLeg
	{
		OFFSET	 0.126116	-0.014019	-0.065224
		CHANNELS 3 Zrotation Xrotation Yrotation
		JOINT LeftLeg
		{
			OFFSET	 0.000000	 0.000000	 0.569914
			CHANNELS 3 Zrotation Xrotation Yrotation
			JOINT LeftFoot
			{
				OFFSET	 0.000000	 0.000000	 0.544423
				CHANNELS 3 Zrotation Xrotation Yrotation
				JOINT LeftToeBase
				{
					OFFSET	 0.000000	 0.000000	 0.207117
					CHANNELS 3 Zrotation Xrotation Yrotation
					End Site
					{
						OFFSET	 0.000000	 0.000000	 0.207117
					}
				}
			}
		}
	}
	JOINT RightUpLeg
	{
		OFFSET	-0.124023	-0.008373	-0.065224
		CHANNELS 3 Zrotation Xrotation Yrotation
		JOINT RightLeg
		{
			OFFSET	 0.000000	 0.000000	 0.570047
			CHANNELS 3 Zrotation Xrotation Yrotation
			JOINT RightFoot
			{
				OFFSET	 0.000000	 0.000000	 0.544354
				CHANNELS 3 Zrotation Xrotation Yrotation
				JOINT RightToeBase
				{
					OFFSET	 0.000000	 0.000000	 0.207540
					CHANNELS 3 Zrotation Xrotation Yrotation
					End Site
					{
						OFFSET	 0.000000	 0.000000	 0.207540
					}
				}
			}
		}
	}
	JOINT Spine
	{
		OFFSET	 0.000184	-0.007763	 0.117403
		CHANNELS 3 Zrotation Xrotation Yrotation
		JOINT Spine1
		{
			OFFSET	 0.000000	 0.000000	 0.137269
			CHANNELS 3 Zrotation Xrotation Yrotation
			JOINT Spine2
			{
				OFFSET	 0.000000	 0.000000	 0.156879
				CHANNELS 3 Zrotation Xrotation Yrotation
				JOINT LeftShoulder
				{
					OFFSET	 0.080501	-0.002496	 0.160144
					CHANNELS 3 Zrotation Xrotation Yrotation
					JOINT LeftArm
					{
						OFFSET	 0.000000	 0.000000	 0.164363
						CHANNELS 3 Zrotation Xrotation Yrotation
						JOINT LeftForeArm
						{
							OFFSET	 0.000000	 0.000000	 0.364576
							CHANNELS 3 Zrotation Xrotation Yrotation
							JOINT LeftHand
							{
								OFFSET	 0.000000	 0.000000	 0.360812
								CHANNELS 3 Zrotation Xrotation Yrotation
								JOINT LeftHandIndex1
								{
									OFFSET	 0.000000	 0.000000	 0.086006
									CHANNELS 3 Zrotation Xrotation Yrotation
									JOINT LeftHandIndex2
									{
										OFFSET	 0.000000	 0.000000	 0.047236
										CHANNELS 3 Zrotation Xrotation Yrotation
										JOINT LeftHandIndex3
										{
											OFFSET	-0.004284	-0.000551	 0.038166
											CHANNELS 3 Zrotation Xrotation Yrotation
											End Site
											{
												OFFSET	-0.004284	-0.000551	 0.038166
											}
										}
									}
								}
							}
						}
					}
				}
				JOINT Neck
				{
					OFFSET	 0.000000	 0.000000	 0.176489
					CHANNELS 3 Zrotation Xrotation Yrotation
					JOINT Head
					{
						OFFSET	 0.000000	-0.001747	 0.077940
						CHANNELS 3 Zrotation Xrotation Yrotation
						End Site
						{
							OFFSET	 0.000000	-0.001747	 0.077940
						}
					}
				}
				JOINT RightShoulder
				{
					OFFSET	-0.080363	 0.000306	 0.159706
					CHANNELS 3 Zrotation Xrotation Yrotation
					JOINT RightArm
					{
						OFFSET	 0.000000	 0.000000	 0.164196
						CHANNELS 3 Zrotation Xrotation Yrotation
						JOINT RightForeArm
						{
							OFFSET	 0.000000	 0.000000	 0.365611
							CHANNELS 3 Zrotation Xrotation Yrotation
							JOINT RightHand
							{
								OFFSET	 0.000000	 0.000000	 0.360648
								CHANNELS 3 Zrotation Xrotation Yrotation
								JOINT RightHandIndex1
								{
									OFFSET	 0.000000	 0.000000	 0.069977
									CHANNELS 3 Zrotation Xrotation Yrotation
									JOINT RightHandIndex2
									{
										OFFSET	 0.000000	 0.000000	 0.052305
										CHANNELS 3 Zrotation Xrotation Yrotation
										JOINT RightHandIndex3
										{
											OFFSET	 0.009002	-0.000782	 0.042196
											CHANNELS 3 Zrotation Xrotation Yrotation
											End Site
											{
												OFFSET	 0.009002	-0.000782	 0.042196
											}
										}
									}
								}
							}
						}
					}
				}
			}
		}
	}
}
MOTION
Frames:    11
Frame Time: 0.03333334
-0.089990	 6.750022	 1.264602	-95.320120	 1.558440	 1.194165	-42.721360	-8.186454	-176.464300	 17.992100	-41.538540	 5.958193	-92.202520	 75.620240	 69.497180	-2.201689	 46.725530	-0.473268	 24.720450	-6.308458	-178.039400	-8.330837	-41.072090	-0.157959	 51.241250	 79.037860	-35.646950	 1.959555	 56.371400	 0.852928	-4.574826	 4.774465	 1.731990	-7.334841	 11.200720	-6.911193	 5.155694	-28.081070	 6.951873	-91.229250	 83.958340	 178.242600	 67.019430	 58.436990	-77.669850	 4.561170	-10.599920	-26.787620	 29.020320	-26.654580	-10.257960	-11.583910	 9.740253	-25.703200	-5.213937	-0.202400	 3.566957	-1.378229	 35.397820	-2.634230	-0.589638	 4.446673	 1.322632	-4.214020	-14.500970	-12.894440	 87.727230	 87.419040	-176.799200	-8.341523	 78.008310	-12.431120	-2.272272	-15.795600	 35.608480	-23.281270	-34.264060	 7.045439	-1.430177	 24.500290	-62.102180	 5.070519	-0.690904	-9.399550	-2.350882	 35.473990	 5.254307
-0.089644	 6.771538	 1.265765	-90.901170	 2.283889	 1.712188	-44.717080	-8.607434	-177.877600	 19.251650	-42.399410	 6.920068	-91.460490	 74.724590	 68.561750	-2.221649	 45.556220	-0.436064	 20.873070	-5.631101	-178.641200	-6.392857	-39.391410	 1.077522	 49.174600	 80.392400	-34.267570	 2.083253	 52.166990	 0.670293	-5.496600	 4.455813	 1.431335	-7.244845	 11.800790	-7.184448	 7.171123	-29.750450	 7.939568	-91.229200	 83.958310	 178.242500	 64.639710	 61.341320	-74.339810	 5.049999	-9.819523	-24.862670	 29.000700	-28.691230	-8.263842	-11.098710	 9.593218	-23.860670	-5.213937	-0.202400	 3.566957	-1.378229	 35.397820	-2.634230	 1.789892	 5.830654	-1.471766	-1.945271	-17.622880	-8.714256	 87.726970	 87.418820	-176.798900	-6.045422	 77.371080	-14.819500	-1.588490	-15.544380	 36.517250	-23.865800	-34.806190	 6.694391	-1.731080	 24.156120	-62.569590	 5.070519	-0.690904	-9.399550	-2.350882	 35.473990	 5.254307
-0.089566	 6.787896	 1.267094	-87.789280	 2.897359	 1.921396	-45.634220	-9.181712	-178.817800	 19.752610	-43.084660	 7.357651	-89.333100	 74.326160	 66.543960	-2.257304	 43.214730	-0.365437	 18.142680	-4.840252	-178.934000	-4.912160	-37.678120	 1.943839	 45.305440	 81.150250	-31.092640	 2.057616	 53.142830	 0.709734	-6.012554	 4.111158	 1.203354	-6.983984	 12.082490	-7.132653	 8.974716	-30.803010	 8.750119	-91.229230	 83.958370	 178.242600	 59.014470	 64.731770	-69.897570	 5.884205	-8.045357	-20.366860	 28.182400	-30.517490	-5.833366	-11.077630	 8.984198	-23.313140	-5.213937	-0.202400	 3.566957	-1.378229	 35.397820	-2.634230	 4.025692	 6.868798	-4.204262	 0.367920	-19.825190	-4.547708	 87.726970	 87.419040	-176.798900	-4.866263	 76.582740	-16.144450	-1.031444	-15.232820	 37.101920	-24.322770	-34.972220	 6.446050	-0.961536	 25.297670	-62.519670	 5.070519	-0.690904	-9.399550	-2.350882	 35.473990	 5.254307
-0.089555	 6.807173	 1.268473	-84.394420	 3.259957	 2.145527	-45.894660	-9.676508	-179.670200	 20.129810	-43.968800	 7.743685	-87.236130	 74.055310	 64.650850	-2.275847	 41.837290	-0.326033	 15.010290	-3.477164	-179.418400	-3.228873	-35.407410	 2.821249	 40.865410	 82.134740	-27.527410	 2.075538	 52.467410	 0.682267	-6.483133	 3.915832	 0.978339	-6.552858	 12.658060	-7.054932	 11.064070	-31.816820	 9.786666	-91.229090	 83.958340	 178.242400	 47.046840	 67.495940	-61.839980	 6.048698	-4.266683	-11.754490	 26.363460	-32.151880	-2.979029	-10.997440	 8.594213	-22.742550	-5.213937	-0.202400	 3.566957	-1.378229	 35.397820	-2.634230	 6.589240	 8.038265	-7.013489	 3.181032	-22.171990	 0.353446	 87.726660	 87.419040	-176.798600	-4.473018	 75.503860	-16.477550	 0.079003	-14.549220	 37.970860	-24.458090	-34.802960	 6.250516	-0.740885	 25.677320	-62.769090	 5.070519	-0.690904	-9.399550	-2.350882	 35.473990	 5.254307
-0.088664	 6.826028	 1.269313	-81.403640	 3.292579	 2.392722	-45.653540	-9.937965	 179.661300	 20.497930	-44.892800	 8.135442	-85.793880	 73.780150	 63.424400	-2.309244	 38.982040	-0.248665	 12.064480	-2.082075	-179.979100	-1.650816	-33.321750	 3.548024	 37.212800	 83.230190	-24.795910	 2.156424	 48.972900	 0.551351	-7.003533	 3.974211	 0.753490	-6.180542	 13.556970	-6.985209	 12.816870	-32.518640	 10.695540	-91.229160	 83.958310	 178.242500	 32.141620	 67.942190	-52.233730	 4.303893	-0.118424	-1.831584	 23.587820	-33.199810	-0.684554	-10.753640	 8.781068	-22.030690	-5.213937	-0.202400	 3.566957	-1.378229	 35.397820	-2.634230	 8.783515	 9.132547	-8.966431	 5.715289	-24.121700	 4.595676	 87.726820	 87.418960	-176.798800	-4.277261	 74.448030	-15.880990	 1.506890	-13.711540	 39.132700	-24.177340	-34.318420	 6.041198	-1.387002	 24.851940	-63.362580	 5.070519	-0.690904	-9.399550	-2.350882	 35.473990	 5.254307
-0.085078	 6.846011	 1.270207	-78.420800	 4.042109	 2.690419	-47.292720	-10.720000	 178.619300	 21.839340	-45.901790	 9.260349	-82.117410	 72.671780	 59.933310	-2.408406	 15.906180	 0.254303	 8.994307	-1.774010	 179.449000	-0.112147	-31.446100	 4.181913	 27.000360	 83.894560	-15.514800	 2.174212	 48.083420	 0.520650	-7.598433	 3.634254	 0.135966	-5.838697	 14.138150	-6.260478	 13.650710	-33.143170	 10.610400	-91.229270	 83.958310	 178.242600	 19.755820	 67.348500	-40.007870	 1.339700	-0.061212	-2.175059	 20.360940	-33.903240	 0.999257	-10.414720	 9.120505	-21.081130	-5.213937	-0.202400	 3.566957	-1.378229	 35.397820	-2.634230	 10.591860	 9.657451	-10.474970	 7.803508	-24.863320	 7.846669	 87.726780	 87.418960	-176.798800	 0.742777	 73.227340	-19.326330	 1.808331	-13.904900	 40.457020	-24.488240	-34.056670	 5.048999	-0.595095	 26.002310	-63.320160	 5.070519	-0.690904	-9.399550	-2.350882	 35.473990	 5.254307
-0.078952	 6.873091	 1.270758	-73.900010	 4.945143	 2.330375	-43.730290	-13.074320	 176.752200	 20.090310	-47.469310	 8.183395	-83.506590	 73.777840	 62.357320	-2.366722	 32.051780	-0.079859	 6.701988	-1.266310	 178.892300	 0.980690	-29.282550	 4.465173	 25.198310	 86.893480	-14.090120	 2.313413	 38.405560	 0.235482	-8.938579	 3.611047	 0.076328	-5.797395	 14.752230	-6.299902	 15.873280	-33.532250	 11.826680	-91.229290	 83.958310	 178.242600	 3.091439	 64.479810	-24.212480	-1.809070	 0.028045	-2.691128	 16.594260	-34.619580	 3.031807	-9.976057	 8.906694	-19.384550	-5.213937	-0.202400	 3.566957	-1.378229	 35.397820	-2.634230	 12.904670	 11.003880	-11.968780	 10.569710	-26.004210	 12.559850	 87.727060	 87.419040	-176.799000	 1.905556	 71.638250	-18.041880	 4.147719	-12.644190	 42.990670	-23.577820	-32.356860	 4.704771	-0.471168	 26.350450	-64.196430	 5.070519	-0.690904	-9.399550	-2.350882	 35.473990	 5.254307
-0.078255	 6.877152	 1.270690	-73.254810	 5.010355	 2.400705	-43.331390	-13.298760	 176.489100	 19.977750	-47.717640	 8.130774	-83.753260	 73.874070	 62.699970	-2.368185	 31.814940	-0.074468	 6.245268	-1.108142	 178.721000	 1.176129	-28.875670	 4.505025	 23.044120	 87.094310	-12.067550	 2.317422	 38.007460	 0.225228	-9.145914	 3.696858	-0.055348	-5.747229	 14.830640	-6.268920	 16.082490	-33.582300	 11.876800	-91.229240	 83.958310	 178.242600	 1.466232	 63.919940	-22.645820	-2.104765	 0.040956	-2.766179	 16.250220	-34.559270	 3.205054	-10.013820	 8.922723	-19.528530	-5.213937	-0.202400	 3.566957	-1.378229	 35.397820	-2.634230	 13.155180	 11.004410	-12.063530	 10.835150	-25.948180	 12.974400	 87.727010	 87.419040	-176.799000	 2.405330	 71.382640	-18.154790	 4.415905	-12.558110	 43.464480	-23.474580	-32.112150	 4.581515	-0.393454	 26.447480	-64.123410	 5.070519	-0.690904	-9.399550	-2.350882	 35.473990	 5.254307
-0.074835	 6.895585	 1.270036	-70.255750	 5.309029	 2.705847	-41.450830	-14.459900	 175.373500	 19.441660	-48.853650	 7.864027	-84.601590	 74.381450	 63.965550	-2.374577	 30.716770	-0.049719	 4.146061	-0.393208	 178.017300	 2.068457	-26.999870	 4.650746	 10.539380	 87.889840	-0.223935	 2.334577	 36.161610	 0.178834	-10.183180	 4.114551	-0.673579	-5.566411	 15.290490	-6.284749	 17.116310	-33.831140	 12.213050	-91.229200	 83.958310	 178.242500	-4.578293	 62.183220	-11.862980	-3.632208	-1.931629	-12.710150	 14.553600	-34.109350	 3.864010	-10.188420	 8.998239	-20.196220	-5.213937	-0.202400	 3.566957	-1.378229	 35.397820	-2.634230	 14.316090	 10.999210	-12.505430	 12.054490	-25.645950	 14.896080	 87.726890	 87.418890	-176.798800	 4.524250	 70.255100	-18.313980	 5.683994	-12.173900	 45.907310	-22.974940	-30.791150	 4.069769	-0.032995	 26.900130	-63.785960	 5.070519	-0.690904	-9.399550	-2.350882	 35.473990	 5.254307
-0.070849	 6.913375	 1.269021	-67.585550	 5.830440	 2.893108	-38.689580	-16.084570	 174.276700	 18.149130	-49.882770	 6.984230	-86.274990	 75.275740	 66.238410	-2.356579	 33.576920	-0.115107	 1.267104	-0.293429	 177.636200	 3.201136	-25.671890	 4.943734	-2.021233	 87.595470	 11.329630	 2.339731	 35.555730	 0.163979	-10.898040	 4.266208	-1.351967	-5.138292	 15.475930	-5.962765	 17.230270	-33.827640	 11.874630	-91.229310	 83.958310	 178.242600	-9.007675	 59.799090	-5.196212	-3.993002	-2.708158	-17.299870	 14.095830	-32.806100	 4.312553	-10.577990	 7.591313	-20.610240	-5.213937	-0.202400	 3.566957	-1.378229	 35.397820	-2.634230	 14.766060	 11.332630	-12.588520	 12.806530	-25.620140	 16.824020	 87.726780	 87.418890	-176.798700	 3.561759	 69.001350	-15.439660	 7.137107	-11.432430	 48.269810	-22.530880	-28.790210	 4.189512	-0.757820	 25.967990	-64.333480	 5.070519	-0.690904	-9.399550	-2.350882	 35.473990	 5.254307
-0.066947	 6.929848	 1.267947	-65.275380	 6.112042	 2.936669	-35.765720	-17.513520	 173.866300	 17.249630	-50.508080	 6.346807	-86.210990	 76.039980	 66.517960	-2.371233	 31.305750	-0.062935	-1.064153	-0.352492	 177.117700	 4.598194	-24.898920	 5.400573	-18.804450	 87.803130	 26.984470	 2.363309	 32.343080	 0.088051	-11.526720	 4.527217	-1.532833	-4.742307	 15.872310	-6.467506	 17.975400	-33.748500	 12.535420	-91.229350	 83.958240	 178.242700	-12.387150	 57.285790	-2.151952	-3.865983	-2.410406	-16.433770	 13.719190	-30.929370	 4.521252	-10.754120	 6.867620	-20.733530	-5.213937	-0.202400	 3.566957	-1.378229	 35.397820	-2.634230	 15.219900	 11.730730	-12.534910	 13.450380	-25.846770	 18.208610	 87.726590	 87.418960	-176.798600	 4.105224	 68.165410	-13.985330	 7.835446	-11.156620	 50.055550	-22.586130	-26.710490	 4.079879	-1.074621	 25.487510	-64.203100	 5.070519	-0.690904	-9.399550	-2.350882	 35.473990	 5.254307
